<svg xmlns="http://www.w3.org/2000/svg" width="150" height="30" fill="none"><path fill="#fff" d="M79.43 29.85 68.61.15h4.33l9 25.17h1.01L91.96.15h4.32l-10.81 29.7z"/><path fill="#fff" fill-rule="evenodd" d="M113.64 26.07c1.28 0 2.35-.45 3.22-1.36.87-.9 1.31-2.04 1.31-3.42s-.44-2.52-1.31-3.42-1.94-1.36-3.22-1.36h-9.56v9.56zm-.51-13.08c.9 0 1.7-.18 2.39-.55s1.21-.9 1.59-1.59.55-1.48.55-2.39c0-1.38-.41-2.48-1.23-3.29-.82-.82-1.92-1.24-3.29-1.24h-9.06v9.06h9.06zm-13.08 16.86V.16h13.08c1.65 0 3.12.36 4.43 1.08s2.32 1.71 3.04 2.97 1.08 2.68 1.08 4.25q0 1.56-.51 2.82c-.34.84-.76 1.52-1.26 2.07-.51.54-1.01.92-1.51 1.16v.25c.97.4 1.84 1.17 2.62 2.31.77 1.14 1.15 2.55 1.15 4.22 0 1.58-.38 3.02-1.13 4.33a8.4 8.4 0 0 1-3.1 3.1c-1.31.76-2.75 1.13-4.33 1.13h-13.58z" clip-rule="evenodd"/><path fill="#fff" d="M132 .15h-4.03v29.69H132z"/><path fill="#FFB200" d="M38.24 20.4 18 .15h40.49z"/><path fill="#F09" d="m18 9.6 20.24 20.25H18zM58.49 9.6 38.24 29.85h20.25z"/></svg>